<svg xmlns="http://www.w3.org/2000/svg" version="1.1" xmlns:xlink="http://www.w3.org/1999/xlink" xmlns:svgjs="http://svgjs.com/svgjs" height="126.0461441040039" width="254.57000732421875"><defs id="SvgjsDefs2039"></defs><g id="SvgjsG2040" rel="mainfill" name="main_text" xmlns:name="main_text" transform="translate(-5.429999828338623,-114.69039764404297)" fill="#2A2C2B"><path d="M52.90 177.33C51.37 175.88 50.01 176.97 48.47 177.06C45.04 177.42 41.60 176.88 37.89 176.88C29.39 176.88 20.53 176.06 11.12 176.61C10.13 174.80 7.14 175.25 6.51 177.06C6.60 178.23 8.41 177.60 9.04 178.14C9.22 179.50 8.77 180.22 8.50 181.22C11.21 183.39 8.59 187.01 8.50 189.18C9.50 189.45 9.13 187.91 9.86 188.72C11.21 199.03 9.50 210.52 9.31 220.38C8.59 220.56 9.50 219.20 8.77 219.38C8.68 225.98 10.13 233.13 7.78 238.46C6.33 238.73 5.43 238.10 5.43 240C7.51 241.63 11.03 238.55 13.20 240.27C13.02 239.28 14.29 239.64 14.47 239.01C20.71 238.46 28.85 236.83 36.63 236.38C39.43 236.20 41.96 236.29 44.67 236.11C45.04 236.11 45.58 235.93 45.94 235.84C48.74 235.57 51.91 237.47 53.36 235.12C53.63 233.76 51.91 234.57 51.82 233.58C52.18 232.40 52.36 229.78 50.82 229.69C49.02 229.87 50.46 233.49 49.29 234.30C35.72 234.21 27.13 236.02 14.47 237.38C14.47 236.29 13.75 237.56 13.47 236.93C13.66 235.48 13.02 234.75 13.20 233.31C13.20 233.04 13.47 231.59 13.66 231.23C13.84 230.87 14.47 230.78 14.65 230.50C14.47 230.59 14.02 230.23 13.93 229.96C13.93 229.69 14.11 228.88 14.20 228.42C14.74 224.17 15.10 216.76 15.74 212.96C18.81 211.97 22.07 211.15 25.59 210.61C25.14 213.14 25.95 214.68 27.58 215.76C28.40 213.32 27.22 209.98 28.94 208.80C27.67 207.99 29.12 206.45 28.67 205.73C27.94 205.27 27.31 204.37 26.32 204.91C25.86 205.82 26.23 207.53 25.32 207.99C24.78 207.26 23.60 207.99 22.97 207.81C22.79 207.71 22.79 207.26 22.43 207.26C22.07 207.26 21.43 207.99 20.89 207.99C18.99 208.35 16.82 207.81 15.28 207.99C15.19 206.90 14.83 206.00 15.01 204.64C16.91 202.56 16.46 198.49 16.28 194.60C16.01 189.09 17.00 183.21 16.82 179.14C23.69 179.05 34.18 178.96 40.51 179.68C42.78 179.95 45.85 179.59 47.75 179.41C49.92 179.23 53.09 179.50 52.90 177.33ZM10.85 178.41C11.21 178.41 11.58 178.41 11.67 178.14C12.57 178.32 11.85 179.86 11.12 179.95C11.30 179.14 10.67 179.14 10.85 178.41ZM9.86 237.92C10.13 237.56 10.13 237.02 10.31 236.65C11.03 236.47 10.13 237.83 10.85 237.65C10.76 238.01 10.22 237.92 9.86 237.92ZM10.58 233.58L10.58 232.49L11.12 232.49L11.12 233.58ZM12.12 237.65C11.39 237.92 11.67 237.11 11.67 236.65C12.12 236.74 12.21 237.11 12.12 237.65ZM14.47 180.22C13.84 180.13 13.84 179.50 14.20 179.14C14.56 179.23 14.47 179.77 14.47 180.22ZM13.20 200.30C12.66 200.30 13.02 199.39 12.93 199.03C13.29 199.30 13.47 200.03 13.20 200.30ZM13.20 196.95C12.66 196.95 13.02 196.05 12.93 195.69C13.29 195.96 13.47 196.68 13.20 196.95ZM13.47 210.88C13.29 211.42 12.93 211.06 13.20 210.07C13.38 209.34 13.47 210.70 13.47 210.88ZM9.04 183.84C8.95 184.11 9.22 184.83 9.31 184.29C9.41 183.93 9.13 183.30 9.04 183.84ZM65.93 176.51C64.93 177.06 65.57 179.32 64.39 179.59C64.39 178.05 64.03 176.79 62.58 176.79C61.59 177.78 62.40 178.96 62.58 180.13C63.21 187.91 61.86 195.96 62.04 203.28C62.13 206.90 61.13 210.79 60.95 214.68C60.86 216.67 61.13 218.66 60.95 220.56C60.68 227.07 58.24 233.31 59.14 239.64C59.78 240.18 60.41 239.37 61.50 239.64C62.31 239.55 61.59 240.90 62.58 240.72C63.12 239.55 64.30 239.01 65.93 238.91C66.20 238.28 65.11 237.83 65.93 237.65C66.56 238.10 67.37 238.55 68.19 238.91C70.36 237.38 73.34 238.28 75.97 238.10C76.69 238.10 77.32 237.65 78.05 237.65C80.22 237.38 82.66 238.01 84.74 237.83C86.64 237.74 88.45 236.56 90.16 237.38C90.62 237.29 90.34 236.38 91.16 236.56C92.33 237.56 92.79 235.75 95.05 236.29C95.32 235.30 95.68 234.30 95.77 232.95C97.49 232.40 98.75 228.24 97.13 226.80C96.04 227.97 96.13 230.14 95.32 231.41C95.14 229.51 96.04 228.88 95.50 227.25C94.05 227.25 94.41 228.97 93.51 229.33C93.42 228.88 93.33 228.51 92.97 228.33C92.06 230.87 91.52 233.76 89.35 235.03C81.57 235.48 72.35 236.11 65.38 234.75C66.02 221.64 66.74 204.46 67.92 190.44C68.10 188.72 68.73 186.91 68.73 185.29C68.73 184.74 68.28 184.20 68.19 183.75C68.10 181.76 69.18 179.86 68.46 178.05C67.92 177.15 67.10 178.59 66.92 178.05C67.01 177.15 67.01 176.24 65.93 176.51ZM77.50 236.02C78.23 236.20 79.04 236.47 79.58 237.11C77.95 236.93 76.60 237.65 75.69 236.56C74.70 237.02 73.34 236.93 72.08 237.11C69.54 237.38 67.28 237.20 65.38 236.29C66.92 235.66 68.46 236.29 70.00 236.29C72.62 236.29 75.24 235.66 77.50 236.02ZM65.66 201.02C63.94 199.76 65.57 196.59 65.11 194.33C66.02 195.78 65.47 198.76 65.66 201.02ZM60.95 238.37L60.95 235.84C61.86 236.11 62.04 238.28 60.95 238.37ZM62.04 230.41C60.95 230.14 62.13 229.15 61.77 228.06C62.67 228.51 61.77 229.24 62.04 230.41ZM65.38 193.79C64.75 193.52 65.29 192.16 65.11 191.44C65.47 191.07 65.57 193.43 65.38 193.79ZM96.58 231.68C95.77 231.50 96.77 230.87 96.58 230.41C97.13 230.41 96.67 231.50 96.58 231.68ZM91.43 234.21C91.61 234.30 91.61 234.12 91.70 234.03C92.15 233.85 92.06 235.21 91.43 234.75ZM93.69 234.48C92.97 234.30 93.96 233.94 93.69 233.49C94.41 233.49 93.78 234.39 93.69 234.48ZM61.50 231.14L61.50 230.69L62.04 230.69L62.04 231.14ZM150.85 177.33C149.31 175.88 147.95 176.97 146.41 177.06C142.98 177.42 139.54 176.88 135.83 176.88C127.33 176.88 118.47 176.06 109.06 176.61C108.07 174.80 105.09 175.25 104.45 177.06C104.54 178.23 106.35 177.60 106.98 178.14C107.17 179.50 106.71 180.22 106.44 181.22C109.15 183.39 106.53 187.01 106.44 189.18C107.44 189.45 107.07 187.91 107.80 188.72C109.15 199.03 107.44 210.52 107.26 220.38C106.53 220.56 107.44 219.20 106.71 219.38C106.62 225.98 108.07 233.13 105.72 238.46C104.27 238.73 103.37 238.10 103.37 240C105.45 241.63 108.97 238.55 111.14 240.27C110.96 239.28 112.23 239.64 112.41 239.01C118.65 238.46 126.79 236.83 134.57 236.38C137.37 236.20 139.90 236.29 142.62 236.11C142.98 236.11 143.52 235.93 143.88 235.84C146.69 235.57 149.85 237.47 151.30 235.12C151.57 233.76 149.85 234.57 149.76 233.58C150.12 232.40 150.30 229.78 148.77 229.69C146.96 229.87 148.40 233.49 147.23 234.30C133.66 234.21 125.07 236.02 112.41 237.38C112.41 236.29 111.69 237.56 111.42 236.93C111.60 235.48 110.96 234.75 111.14 233.31C111.14 233.04 111.42 231.59 111.60 231.23C111.78 230.87 112.41 230.78 112.59 230.50C112.41 230.59 111.96 230.23 111.87 229.96C111.87 229.69 112.05 228.88 112.14 228.42C112.68 224.17 113.04 216.76 113.68 212.96C116.75 211.97 120.01 211.15 123.53 210.61C123.08 213.14 123.90 214.68 125.52 215.76C126.34 213.32 125.16 209.98 126.88 208.80C125.61 207.99 127.06 206.45 126.61 205.73C125.89 205.27 125.25 204.37 124.26 204.91C123.81 205.82 124.17 207.53 123.26 207.99C122.72 207.26 121.54 207.99 120.91 207.81C120.73 207.71 120.73 207.26 120.37 207.26C120.01 207.26 119.37 207.99 118.83 207.99C116.93 208.35 114.76 207.81 113.22 207.99C113.13 206.90 112.77 206.00 112.95 204.64C114.85 202.56 114.40 198.49 114.22 194.60C113.95 189.09 114.94 183.21 114.76 179.14C121.63 179.05 132.13 178.96 138.46 179.68C140.72 179.95 143.79 179.59 145.69 179.41C147.86 179.23 151.03 179.50 150.85 177.33ZM108.79 178.41C109.15 178.41 109.52 178.41 109.61 178.14C110.51 178.32 109.79 179.86 109.06 179.95C109.25 179.14 108.61 179.14 108.79 178.41ZM107.80 237.92C108.07 237.56 108.07 237.02 108.25 236.65C108.97 236.47 108.07 237.83 108.79 237.65C108.70 238.01 108.16 237.92 107.80 237.92ZM108.52 233.58L108.52 232.49L109.06 232.49L109.06 233.58ZM110.06 237.65C109.34 237.92 109.61 237.11 109.61 236.65C110.06 236.74 110.15 237.11 110.06 237.65ZM112.41 180.22C111.78 180.13 111.78 179.50 112.14 179.14C112.50 179.23 112.41 179.77 112.41 180.22ZM111.14 200.30C110.60 200.30 110.96 199.39 110.87 199.03C111.23 199.30 111.42 200.03 111.14 200.30ZM111.14 196.95C110.60 196.95 110.96 196.05 110.87 195.69C111.23 195.96 111.42 196.68 111.14 196.95ZM111.42 210.88C111.23 211.42 110.87 211.06 111.14 210.07C111.33 209.34 111.42 210.70 111.42 210.88ZM106.98 183.84C106.89 184.11 107.17 184.83 107.26 184.29C107.35 183.93 107.07 183.30 106.98 183.84ZM168.12 177.69C164.95 177.15 159.35 176.70 161.15 180.58C163.05 180.95 162.69 178.05 164.50 179.23C164.68 180.49 163.33 180.31 163.51 181.58C163.96 184.56 162.87 188 162.96 190.89C163.05 191.44 163.42 192.16 163.51 192.70C163.96 195.96 162.96 200.30 162.69 204.28C162.51 208.98 162.33 213.23 162.51 216.85C162.60 221.01 163.69 224.72 162.24 228.51C163.69 230.23 162.69 234.48 161.97 236.47C159.80 236.74 158.44 237.74 156 237.74C155.73 238.73 156.45 239.19 156.54 239.55C156.63 239.82 155.91 240.63 156.81 240.63C158.44 240.63 157.09 239.28 158.35 239.10C159.89 238.28 160.88 237.74 162.69 237.74C163.23 238.19 162.60 239.82 163.78 239.55C163.60 237.92 165.31 238.01 165.59 236.74C165.95 235.48 164.23 236.38 164.50 235.21C164.68 231.23 165.41 227.79 165.31 223.63C166.13 223.81 166.31 223.36 166.58 223.09C165.59 214.41 164.05 207.26 164.50 199.67C164.77 196.50 165.95 193.25 165.59 189.54C168.21 192.52 170.29 195.96 172.55 199.39C173.00 199.85 172.37 199.85 172.55 200.66C175.53 205.09 178.97 208.98 181.32 214.05C181.41 214.59 182.23 214.32 182.32 214.86C182.95 216.58 183.13 217.21 183.85 218.93C184.40 219.29 184.85 218.84 185.39 219.47C187.56 223.72 191.27 226.34 193.17 230.78C193.71 231.14 194.16 230.14 194.16 230.78C195.79 233.31 197.69 236.47 197.24 239.55C198.50 239.46 199.59 239.28 200.40 238.82C201.04 239.19 201.13 240.09 201.94 240.36C202.66 240 201.49 239.46 201.67 238.82C203.84 238.28 206.10 237.74 207.37 236.20C205.56 236.02 204.56 236.56 203.21 236.74C201.76 235.93 202.12 234.75 201.94 232.86C201.58 229.87 200.58 226.62 200.40 223.36C200.22 221.28 199.95 219.56 199.86 218.48C199.77 216.31 200.22 213.23 200.40 211.69C201.04 206.54 200.86 200.12 202.39 195.78C201.22 193.97 203.03 189.36 203.21 186.19C203.30 185.29 202.66 183.75 202.94 183.12C204.02 180.40 207.46 183.84 207.82 181.04C206.73 179.41 203.39 179.95 201.94 178.78C200.31 180.13 196.61 179.86 195.97 181.85C196.79 183.39 198.69 181.40 200.40 181.58C201.31 186.55 199.86 190.71 199.86 194.96C199.86 196.86 200.04 198.76 199.86 200.66C199.68 202.47 198.96 204.10 198.87 206.09C198.32 212.87 198.87 219.47 198.59 226.98C197.24 225.62 196.70 223.90 195.70 222.27C193.89 219.11 191.27 216.58 189.55 213.50C189.10 212.78 188.92 211.69 188.56 210.97C188.01 210.16 187.20 209.70 186.75 208.89C185.75 207.35 184.94 205.73 183.85 204.28C180.87 199.94 176.89 195.60 175.90 189.81C175.35 189.54 174.45 189.54 174.09 189.09C171.92 185.47 169.29 182.30 168.12 177.69ZM169.20 181.85C168.48 181.94 168.30 181.49 168.39 180.77C168.75 181.04 169.20 181.22 169.20 181.85ZM167.12 184.11C166.85 183.75 166.40 183.57 166.31 182.85C167.03 182.85 167.12 183.48 167.12 184.11ZM166.58 188.54C166.13 188.27 165.59 188 166.13 187.55C166.40 187.64 166.58 188.09 166.58 188.54ZM177.43 197.04C176.71 197.77 176.44 196.05 176.17 195.51C176.80 195.78 176.80 196.68 177.43 197.04ZM177.98 198.31C177.61 198.22 177.43 198.04 177.43 197.59C177.70 197.68 177.98 197.86 177.98 198.31ZM182.32 212.51C181.95 213.05 181.41 211.51 181.32 210.97C181.86 211.24 181.86 212.06 182.32 212.51ZM164.32 219.74C164.50 217.21 163.69 214.68 164.32 213.32C164.86 214.23 164.50 215.49 164.50 216.67C164.59 217.66 165.50 219.11 164.32 219.74ZM199.05 237.74C198.23 238.01 198.23 237.38 198.32 236.74C198.96 236.65 198.96 237.29 199.05 237.74ZM251.23 219.92C252.86 221.10 252.95 223.90 254.12 225.53C252.67 221.01 252.04 216.40 250.69 211.87C249.87 209.07 249.24 206.27 248.42 203.37C247.43 199.94 245.89 196.59 245.35 193.06C244.81 190.35 244.81 186.91 244.54 184.56C244.26 182.21 244.90 179.68 244.26 177.33C243.54 176.70 241.37 177.51 240.65 176.88C239.92 177.51 238.84 177.78 238.39 178.69C237.84 184.11 236.13 188.27 233.95 192.79C230.97 199.12 228.44 206.27 226.00 212.69C224.91 215.40 223.55 218.02 222.38 220.65C221.93 221.10 221.20 220.29 221.11 221.46C220.21 222.00 221.66 222.37 221.38 223.27C220.48 225.26 219.21 226.98 219.03 229.69C216.86 231.41 216.23 234.85 214.60 237.20C213.61 237.20 212.34 237.11 212.34 238.19C212.43 239.10 213.79 238.64 214.42 238.46C214.33 239.01 214.42 239.46 214.60 239.73C217.22 237.92 222.02 240 223.10 237.20C220.84 237.20 219.03 236.65 216.95 236.38C218.94 231.86 220.30 226.80 222.65 222.73C226.09 222.46 230.70 223.90 235.04 223.27C237.12 222.91 239.56 222.55 241.46 223.72C243.18 223.27 244.45 223.00 246.34 223.27C248.24 227.88 249.60 233.04 251.23 237.92C250.32 238.19 249.24 239.37 249.96 240.54C251.23 240.81 250.69 239.28 251.50 239.19C251.86 239.64 252.58 240.45 253.04 240C253.22 239.10 252.67 239.01 252.77 238.19C254.94 236.74 258.73 238.55 260 236.38C258.82 236.56 258.37 236.02 257.47 235.84C256.93 233.94 255.30 232.13 255.66 230.23C254.12 228.06 252.58 225.17 252.77 222.73C252.04 222.18 250.96 220.56 251.23 219.92ZM235.04 193.34C236.49 190.08 237.48 186.73 238.84 183.57C240.01 184.74 240.19 187.91 240.65 190.53C241.01 192.25 241.82 193.88 242.00 195.42C242.00 196.14 241.73 196.68 241.73 197.50C241.73 198.13 242.09 198.76 242.18 199.49C242.46 201.47 242.09 203.46 242.18 205.45C242.64 211.15 244.90 216.31 245.80 221.46C243.63 221.19 239.47 222.37 238.11 220.92C237.03 220.65 237.12 221.46 236.31 221.46C231.87 220.47 226.36 220.92 223.65 220.65C225.63 216.22 227.35 211.78 229.34 206.99C229.98 205.36 230.25 203.74 230.88 202.11C231.97 199.12 233.68 196.23 235.04 193.34ZM247.16 219.38C245.89 214.86 244.08 210.34 243.54 204.64C246.07 210.07 246.25 215.04 247.88 221.73C246.80 221.19 247.34 220.19 247.16 219.38ZM247.61 212.15L247.61 210.34C248.70 212.60 248.79 215.67 249.42 218.39C248.51 218.39 248.97 217.21 248.97 216.76C248.61 215.22 248.15 213.59 247.61 212.15ZM242.73 181.76C242.00 181.04 241.19 180.58 241.19 179.14C242.55 179.23 242.46 180.67 242.73 181.76ZM250.96 231.50C250.50 231.05 250.05 229.69 250.50 229.15C251.14 229.42 251.50 230.87 250.96 231.50ZM250.50 216.31C249.69 216.03 249.96 214.77 249.69 213.95C250.59 214.14 250.23 215.49 250.50 216.31Z" fill="#2A2C2B" style="fill: rgb(42, 44, 43);"></path></g><g id="SvgjsG2041" rel="mainfill" name="symbol" xmlns:name="symbol_mainfill" transform="translate(62.28495655059815,-42.11755218505859) scale(1.3)" fill="#2A2C2B"><path fill="#2A2C2B" d="M10.656,51.198c9.905-15.604,36.398-9.298,36.398-9.298c12.611-11.21,23.566-10.832,31.615-7.315  c8.986,3.926,14.353,11.764,14.353,11.764c-6.225-3.77-11.591-5.855-16.213-6.742c-21.434-4.119-26.79,17.616-26.79,17.616  c-14.915-15.203-27.001-9.263-34.518-1.602c-5.436,5.541-8.484,11.982-8.484,11.982C6.718,60.443,8.162,55.127,10.656,51.198z" style="fill: rgb(42, 44, 43);"></path></g></svg>