<svg xmlns="http://www.w3.org/2000/svg" version="1.1" xmlns:xlink="http://www.w3.org/1999/xlink" xmlns:svgjs="http://svgjs.com/svgjs" height="172.6300018310547" width="252.52000427246094"><defs id="SvgjsDefs2718"></defs><g id="SvgjsG2719" rel="mainfill" name="main_text" xmlns:name="main_text" transform="translate(-3.740000009536743,-67.3699981689453)" fill="#ffffff"><path d="M48.14 240L48.14 229.53L14.20 229.53L14.20 219.14L45.53 219.14L45.53 208.68L14.20 208.68L14.20 198.14L48.14 198.14L48.14 187.67L3.74 187.67L3.74 240ZM54.87 187.67L54.87 240L99.28 240L99.28 229.53L65.34 229.53L65.34 187.67ZM148.91 240L148.91 229.53L114.97 229.53L114.97 219.14L146.30 219.14L146.30 208.68L114.97 208.68L114.97 198.14L148.91 198.14L148.91 187.67L104.51 187.67L104.51 240ZM202.59 240L202.59 187.67L192.20 187.67L192.20 222.51L166.11 187.67L155.64 187.67L155.64 240L166.11 240L166.11 205.09L192.20 240ZM219.78 213.91L219.78 208.68L230.17 198.14L245.87 198.14L245.87 213.91ZM219.78 240L219.78 224.38L245.87 224.38L245.87 240L256.26 240L256.26 187.67L224.94 187.67L209.32 203.44L209.32 240Z" fill="#ffffff" style="fill: rgb(255, 255, 255);"></path></g><g id="SvgjsG2720" rel="mainfill" name="symbol" xmlns:name="symbol_mainfill" transform="translate(65.81000213623048,7.105427357601002e-15) scale(3.9)" fill="#ffffff"><g fill="#ffffff"><path d="M10,22c-1.201,0-2.267,0.541-3,1.38C6.267,22.541,5.201,22,4,22c-2.209,0-4,1.791-4,4c0,0.348,0.059,0.679,0.142,1   C0.588,25.278,2.139,24,4,24c1.201,0,2.267,1.161,3,2c0.733-0.839,1.799-2,3-2c1.861,0,3.412,1.278,3.858,3   C13.941,26.679,14,26.348,14,26C14,23.791,12.209,22,10,22z" fill="#ffffff" style="fill: rgb(255, 255, 255);"></path><path d="M23,0c-4.418,0-8,3.582-8,8c0,2.254,0.936,4.286,2.435,5.74C18.207,13.27,19.087,13,20,13c1.986,0,3.691,1.173,4.497,2.855   C28.199,15.153,31,11.905,31,8C31,3.582,27.418,0,23,0z" fill="#ffffff" style="fill: rgb(255, 255, 255);"></path><path d="M20,14c-1.201,0-2.267,0.541-3,1.38C16.267,14.541,15.201,14,14,14c-2.209,0-4,1.791-4,4c0,0.348,0.059,0.679,0.142,1   c0.446-1.722,1.997-3,3.858-3c1.201,0,2.267,1.161,3,2c0.733-0.839,1.799-2,3-2c1.861,0,3.412,1.278,3.858,3   C23.941,18.679,24,18.348,24,18C24,15.791,22.209,14,20,14z" fill="#ffffff" style="fill: rgb(255, 255, 255);"></path><path d="M5,6.5c0.771,0,1.469,0.521,2,1c0.531-0.479,1.229-1,2-1c1.486,0,2.711,1.082,2.949,2.5C11.978,8.837,12,8.671,12,8.5   c0-1.657-1.343-3-3-3c-0.771,0-1.469,0.3-2,0.778C6.469,5.8,5.771,5.5,5,5.5c-1.657,0-3,1.343-3,3C2,8.671,2.022,8.837,2.051,9   C2.289,7.582,3.514,6.5,5,6.5z" fill="#ffffff" style="fill: rgb(255, 255, 255);"></path></g></g></svg>