<svg xmlns="http://www.w3.org/2000/svg" version="1.1" xmlns:xlink="http://www.w3.org/1999/xlink" xmlns:svgjs="http://svgjs.com/svgjs" height="136.2090087890625" width="265.10186767578125"><defs id="SvgjsDefs4343"></defs><g id="SvgjsG4344" rel="mainfill" name="main_text" xmlns:name="main_text" transform="translate(-1.6981347799301147,-140.68097534179688)" fill="#1F8A70"><path d="M19.84 237.86Q26.48 236.38 32.07 234.57Q33.93 233.97 39.36 232.16Q40.29 231.83 43.09 230.96Q47.14 229.80 49.01 229.80Q49.72 229.48 51.04 228.71L54.21 228.16Q54.82 228.38 55.48 228.27Q56.46 228.10 59.70 227.06Q59.92 227.17 60.46 227.17L61.83 226.46L62.77 226.68L63.37 227.56L62.99 228.27L58.22 229.69L53.39 231.83Q50.43 232.33 43.91 233.92Q43.31 233.97 41.80 234.30Q40.29 234.63 39.52 234.63Q38.98 235.01 35.36 236.22Q34.64 236.60 33.49 237.26Q32.62 237.42 30.92 237.97Q29.16 238.85 24.94 240Q21.00 241.04 19.08 242.14Q15.24 243.62 12.22 243.62Q11.40 243.62 10.63 243.51Q10.52 244.00 10.36 244.06L4.99 245.32L3.40 244.50Q3.23 243.89 3.01 242.58L3.73 241.26L6.74 239.67L7.46 240.22L10.63 240.22Q11.68 239.45 11.68 239.12Q11.57 238.14 10.42 236.33Q9.92 235.56 9.81 234.90L9.81 233.64Q9.65 232.44 9.76 232.33Q9.70 231.83 9.70 229.53Q9.70 230.46 9.35 228.46Q8.99 226.46 9.04 226.19Q9.10 226.13 9.21 226.08L9.04 224.93L9.04 221.25Q8.99 220.87 8.99 220.21L8.99 219.17L9.10 216.98L10.20 211.39Q10.09 211.22 9.92 210.89Q9.98 210.40 10.14 208.97Q10.25 207.88 9.87 207.05L10.31 205.85Q10.25 205.63 10.14 205.25Q10.20 204.92 10.20 204.48Q10.09 203.98 9.65 203.66L9.43 203.44L8.61 203.44L6.91 205.46L6.30 206.29L5.98 206.94L2.91 206.78Q2.47 206.62 1.70 205.41Q1.64 203.16 3.51 200.97L6.69 199.11Q6.91 198.83 6.96 198.56L7.02 198.50L9.43 197.35Q9.65 197.13 9.76 196.80L11.84 195.65Q11.95 195.54 12.11 195.21Q12.39 195.05 12.83 195.10L14.03 195.21Q14.25 195.10 14.91 194.45L15.02 194.39L18.42 193.19L26.97 188.86L28.67 188.47L34.81 185.68Q37.11 185.40 39.25 183.98L42.48 182.88Q42.70 182.55 42.81 182.50L47.36 181.45L48.24 181.78L55.86 179.87Q56.08 179.97 56.57 180.08L58.82 180.08L59.48 180.58L59.59 181.13Q58.44 183.15 57.12 183.26Q55.86 182.93 56.30 182.93L55.31 183.32L54.32 183.59L52.52 183.70Q51.75 183.98 42.92 186.33Q40.67 186.94 39.36 188.03Q40.13 188.03 40.13 188.20Q40.13 188.64 36.51 189.84L27.90 192.75Q25.87 193.41 22.15 195.32Q21.65 195.65 20.01 196.42Q19.08 196.86 18.14 197.95L17.49 198.72Q17.21 198.83 17.10 199.05L16.50 200.31Q16.72 200.75 16.72 201.13Q16.72 201.52 16.45 201.79L15.90 205.68L16.23 208.10L16.06 211.71Q16.61 211.93 17.38 211.93Q17.98 211.44 19.19 211.49Q20.72 211.55 21.32 211.06Q22.15 210.40 23.96 209.36L32.29 207.44L35.08 206.29Q35.41 206.18 37.22 205.25Q38.54 204.31 42.87 203.27Q44.46 202.89 44.90 202.72L51.58 202.67Q51.86 203.44 52.52 203.93L52.24 205.41Q52.46 206.34 51.36 207.22L51.09 207.44Q50.60 207.93 50.27 208.21Q49.50 208.21 46.92 207.33Q44.68 206.56 42.92 207.44Q42.10 207.55 38.43 208.86L29.11 212.21L29.11 212.48Q28.29 212.32 25.76 213.30Q25.55 213.41 24.72 213.63L24.39 214.02L24.34 214.02Q23.79 214.02 23.24 214.13Q22.69 214.45 20.28 215.06Q18.31 215.55 17.60 216.48L15.35 217.20Q15.51 217.47 15.46 218.73Q15.35 219.33 15.73 219.77Q15.73 220.32 15.95 220.98L16.23 223.01Q16.23 223.45 16.39 224.38Q16.45 224.65 16.66 224.82L18.31 229.86Q18.47 230.30 18.80 231.50L19.13 232.98L19.02 233.97Q18.86 234.24 18.97 234.57Q19.13 235.01 19.13 235.18Q19.13 235.78 19.46 236.33L19.30 236.49Q19.30 237.86 19.84 237.86ZM84.31 239.56Q84.53 239.56 85.35 239.34Q85.73 239.23 86.67 238.79Q86.72 238.68 87.38 238.68L87.93 238.57L88.75 238.85Q89.08 238.68 89.63 238.85Q90.34 239.07 90.56 239.01Q90.72 238.90 91.05 238.74Q93.03 238.79 93.74 239.01Q94.83 238.74 96.10 238.25L99.17 238.03Q99.60 237.59 100.43 237.59Q100.81 237.59 101.25 237.70Q101.47 237.64 101.80 237.53L102.95 236.66Q103.39 236.82 104.10 236.82L110.84 235.34Q111.17 235.40 111.44 235.56Q111.55 235.61 112.13 235.48Q112.71 235.34 112.81 235.34Q112.98 235.34 113.03 235.40L115.17 235.50L115.72 236.88Q115.50 237.37 115.28 237.97Q113.80 238.36 113.64 238.30Q112.92 238.19 112.71 238.85Q112.27 238.63 111.99 238.63Q111.77 238.63 111.61 238.74Q110.84 239.29 106.95 239.84Q103.06 240.38 102.18 240.99L101.08 240.99Q100.26 240.99 100.04 241.26L97.96 241.97Q97.41 241.70 96.70 241.81L96.64 241.86Q95.60 242.41 91.49 242.96Q90.56 243.62 84.36 244.33Q82.06 243.73 78.33 244.33Q77.07 244.55 73.40 245.15L73.24 245.32Q68.80 244.66 68.69 244.60Q66.27 244.00 64.96 242.19Q63.59 241.10 62.66 235.72Q62.71 235.45 62.71 235.23Q62.71 235.07 62.63 234.76Q62.55 234.46 62.55 234.30Q62.44 234.74 62.44 233.59Q62.33 233.42 62.33 232.82L62.44 228.43Q62.93 226.41 62.93 224.76Q63.04 224.43 63.04 223.83Q63.10 223.50 63.26 223.06L63.26 222.18Q63.31 221.80 63.70 221.36L64.63 215.11L65.40 213.41L65.78 211.00L67.48 205.68L67.75 203.60Q67.75 203.33 68.14 202.23L68.52 201.13L68.52 200.64Q68.52 200.09 68.69 199.38L69.73 198.12L70.39 195.60L70.39 194.94L71.81 191.49L71.70 190.39Q72.14 190.06 72.30 189.57Q72.85 185.95 73.67 184.47L73.67 183.98Q73.62 183.70 73.62 183.54Q73.62 181.73 74.77 180.52L75.32 180.52L76.58 179.81L77.95 180.03Q78.17 181.73 79.16 182.50Q79.49 185.02 78.39 187.98Q76.85 192.09 76.69 193.02L76.42 194.45Q76.20 194.78 76.09 195.49Q76.09 195.65 75.81 195.93L74.99 198.23Q75.05 198.72 74.66 199.00L72.41 205.63Q72.36 205.74 72.36 206.18Q72.36 206.34 72.09 206.84L71.54 207.60L70.88 211.17L70.28 212.37L69.45 216.76Q68.69 218.18 68.58 221.25Q68.52 222.68 67.97 225.53Q67.97 224.87 67.75 230.52Q67.64 233.31 68.14 235.34Q68.47 235.45 68.58 235.78L68.69 236.05Q68.96 236.71 69.40 236.71L69.40 236.82Q69.40 237.20 69.56 237.42Q70.50 238.36 71.98 239.51Q72.25 239.51 73.40 239.67Q74.11 239.67 74.72 239.40L80.91 240.27Q80.97 240.11 83.32 240L84.31 239.56ZM130.03 237.86Q136.66 236.38 142.25 234.57Q144.12 233.97 149.54 232.16Q150.47 231.83 153.27 230.96Q157.33 229.80 159.19 229.80Q159.90 229.48 161.22 228.71L164.40 228.16Q165.00 228.38 165.66 228.27Q166.65 228.10 169.88 227.06Q170.10 227.17 170.65 227.17L172.02 226.46L172.95 226.68L173.55 227.56L173.17 228.27L168.40 229.69L163.58 231.83Q160.62 232.33 154.09 233.92Q153.49 233.97 151.98 234.30Q150.47 234.63 149.71 234.63Q149.16 235.01 145.54 236.22Q144.83 236.60 143.68 237.26Q142.80 237.42 141.10 237.97Q139.35 238.85 135.13 240Q131.18 241.04 129.26 242.14Q125.42 243.62 122.41 243.62Q121.59 243.62 120.82 243.51Q120.71 244.00 120.54 244.06L115.17 245.32L113.58 244.50Q113.42 243.89 113.20 242.58L113.91 241.26L116.93 239.67L117.64 240.22L120.82 240.22Q121.86 239.45 121.86 239.12Q121.75 238.14 120.60 236.33Q120.11 235.56 120.00 234.90L120.00 233.64Q119.83 232.44 119.94 232.33Q119.89 231.83 119.89 229.53Q119.89 230.46 119.53 228.46Q119.17 226.46 119.23 226.19Q119.28 226.13 119.39 226.08L119.23 224.93L119.23 221.25Q119.17 220.87 119.17 220.21L119.17 219.17L119.28 216.98L120.38 211.39Q120.27 211.22 120.11 210.89Q120.16 210.40 120.32 208.97Q120.43 207.88 120.05 207.05L120.49 205.85Q120.43 205.63 120.32 205.25Q120.38 204.92 120.38 204.48Q120.27 203.98 119.83 203.66L119.61 203.44L118.79 203.44L117.09 205.46L116.49 206.29L116.16 206.94L113.09 206.78Q112.65 206.62 111.88 205.41Q111.83 203.16 113.69 200.97L116.87 199.11Q117.09 198.83 117.15 198.56L117.20 198.50L119.61 197.35Q119.83 197.13 119.94 196.80L122.02 195.65Q122.13 195.54 122.30 195.21Q122.57 195.05 123.01 195.10L124.22 195.21Q124.44 195.10 125.09 194.45L125.20 194.39L128.60 193.19L137.15 188.86L138.85 188.47L144.99 185.68Q147.29 185.40 149.43 183.98L152.67 182.88Q152.89 182.55 153.00 182.50L157.55 181.45L158.42 181.78L166.04 179.87Q166.26 179.97 166.76 180.08L169.00 180.08L169.66 180.58L169.77 181.13Q168.62 183.15 167.30 183.26Q166.04 182.93 166.48 182.93L165.49 183.32L164.51 183.59L162.70 183.70Q161.93 183.98 153.11 186.33Q150.86 186.94 149.54 188.03Q150.31 188.03 150.31 188.20Q150.31 188.64 146.69 189.84L138.09 192.75Q136.06 193.41 132.33 195.32Q131.84 195.65 130.19 196.42Q129.26 196.86 128.33 197.95L127.67 198.72Q127.40 198.83 127.29 199.05L126.68 200.31Q126.90 200.75 126.90 201.13Q126.90 201.52 126.63 201.79L126.08 205.68L126.41 208.10L126.24 211.71Q126.79 211.93 127.56 211.93Q128.16 211.44 129.37 211.49Q130.90 211.55 131.51 211.06Q132.33 210.40 134.14 209.36L142.47 207.44L145.27 206.29Q145.60 206.18 147.40 205.25Q148.72 204.31 153.05 203.27Q154.64 202.89 155.08 202.72L161.77 202.67Q162.04 203.44 162.70 203.93L162.42 205.41Q162.64 206.34 161.55 207.22L161.27 207.44Q160.78 207.93 160.45 208.21Q159.68 208.21 157.11 207.33Q154.86 206.56 153.11 207.44Q152.28 207.55 148.61 208.86L139.29 212.21L139.29 212.48Q138.47 212.32 135.95 213.30Q135.73 213.41 134.91 213.63L134.58 214.02L134.52 214.02Q133.97 214.02 133.43 214.13Q132.88 214.45 130.47 215.06Q128.49 215.55 127.78 216.48L125.53 217.20Q125.70 217.47 125.64 218.73Q125.53 219.33 125.92 219.77Q125.92 220.32 126.14 220.98L126.41 223.01Q126.41 223.45 126.57 224.38Q126.63 224.65 126.85 224.82L128.49 229.86Q128.66 230.30 128.99 231.50L129.31 232.98L129.21 233.97Q129.04 234.24 129.15 234.57Q129.31 235.01 129.31 235.18Q129.31 235.78 129.64 236.33L129.48 236.49Q129.48 237.86 130.03 237.86ZM201.89 232.27Q201.73 232.38 201.35 232.71L200.41 234.30Q200.03 234.57 199.48 235.23L197.29 236.60L194.27 235.83L194.27 235.78Q194.27 235.56 194.16 235.34L193.40 234.85Q193.45 234.68 193.34 233.59L192.74 230.52L192.57 228.54Q192.46 228.32 192.46 227.12L192.74 226.57L192.96 226.08L193.01 225.20L193.56 221.64Q193.67 220.92 193.56 220.21L193.73 219.06L194.00 216.65L194.05 214.95L193.89 212.04L194.27 206.01Q194.49 205.74 194.77 205.25L195.04 203.60Q194.88 203.27 194.55 202.72L194.33 201.19Q194.11 200.97 193.62 200.97L192.30 203.27Q192.30 203.38 192.05 203.79Q191.81 204.20 191.81 204.26L191.81 204.37L190.71 206.18Q190.38 206.67 189.83 207.38L189.56 207.60L187.91 211.55L187.20 212.92Q187.04 213.08 186.82 213.25L186.49 214.40Q186.38 214.67 186.38 215.39L185.72 216.21L185.39 217.36L185.45 217.47L184.85 218.24L184.13 220.10Q183.75 220.38 183.75 220.87L183.53 221.53Q182.38 222.02 181.50 225.31Q181.28 226.13 180.79 227.17Q180.68 227.50 180.57 228.10L179.91 228.49L177.28 234.96Q177.39 235.23 177.39 235.50Q177.39 237.04 176.95 237.37L175.75 240.60L175.31 241.32Q175.14 241.32 174.98 241.70L174.59 242.19L172.24 243.67Q172.24 243.73 171.69 243.78Q171.14 243.84 171.03 243.95L169.72 243.51L169.72 242.30Q169.77 242.19 169.88 241.81Q169.99 241.43 169.77 241.10L169.72 241.04Q171.09 239.73 171.25 237.92L172.57 234.41Q172.46 234.30 172.70 233.53Q172.95 232.76 172.95 232.65Q172.95 232.33 173.44 231.34Q173.94 230.35 173.99 230.08L175.03 228.65Q175.20 226.73 176.84 224.76L178.71 219.50L180.57 216.04Q180.62 215.88 180.84 215.61Q181.06 214.73 181.06 215.11Q181.56 214.73 181.56 214.29L181.94 212.87L183.69 209.63L183.86 208.75L184.35 208.15L184.52 207.22L185.50 204.81L186.43 203.38Q186.76 203.33 187.04 203.00L188.35 200.64L189.78 196.47L191.97 190.99L193.73 190.39Q194.44 190.83 195.26 190.83Q195.48 190.83 198.22 190.06L199.87 192.69Q199.97 193.62 200.14 195.27Q200.03 196.09 200.58 197.08L200.30 197.90Q200.69 198.72 200.36 199.65Q200.19 200.09 199.76 201.30Q199.76 203.98 199.43 204.59Q199.43 206.07 198.66 209.91Q198.66 209.63 197.89 212.81Q198.06 213.63 197.67 214.84Q197.62 215.94 197.51 217.36Q197.45 217.58 197.45 218.46Q197.34 218.62 197.40 219.33Q197.51 219.83 197.18 220.21L197.23 222.95Q197.01 223.61 197.01 224.43Q196.74 224.76 196.74 225.03L197.07 228.21L197.78 229.58Q198.71 229.75 199.70 228.65Q199.87 228.43 202.28 226.02L204.47 222.35Q205.18 221.86 206.72 218.46Q206.94 218.35 208.09 215.66Q208.31 215.11 209.35 214.02L209.62 213.14L213.62 204.81L216.15 197.57L216.91 196.53L217.19 194.89L219.82 187.65Q220.26 187.16 220.26 186.61Q220.26 186.39 220.15 186.11L220.70 184.47Q220.92 184.09 221.08 183.43Q221.24 182.99 221.63 182.50Q222.45 182.44 223.27 181.62L223.71 181.18Q224.26 180.96 224.81 180.96Q225.63 180.96 226.45 181.45Q226.45 181.84 226.62 182.44L226.67 182.55Q226.29 183.04 226.29 183.65Q226.29 184.09 226.51 184.69L226.67 185.13L224.20 188.36L222.18 192.47L222.40 192.97L221.79 194.23L221.13 196.80L219.82 200.64L219.33 201.41Q218.72 201.79 218.50 202.94L218.45 203.49L217.24 206.84L216.64 208.10Q215.93 208.64 215.10 209.85Q214.67 210.51 211.82 216.32L210.66 218.68Q210.23 218.95 210.23 219.61L209.79 220.87L208.58 222.29L206.55 226.19Q206.44 226.84 205.07 228.49L201.89 232.27ZM218.78 243.78L219.33 242.58Q219.43 240.88 220.20 237.70Q220.81 236.38 221.85 233.42Q221.96 232.60 222.45 230.96L230.62 215.99L230.62 215.61L231.17 215.17Q231.22 214.73 231.66 214.56L231.66 214.45L232.32 213.08L234.18 210.07L234.18 209.74L236.10 206.73L237.25 204.70Q238.02 203.38 238.62 201.46Q239.17 200.64 240.10 198.94L241.75 195.05L243.23 192.47L246.13 186.72Q246.41 186.44 246.62 186.33L247.17 184.85Q247.12 184.74 247.28 184.41Q247.45 184.09 247.45 184.03Q247.45 183.76 247.67 183.65L248.21 182.44L249.64 180.19Q250.46 180.25 252.11 180.52Q252.98 180.91 253.59 182.93L253.31 187.05Q253.53 187.43 253.48 188.47Q253.64 188.75 253.64 189.13Q253.26 189.57 253.26 190.55Q253.26 190.94 253.31 191.43Q253.26 192.53 252.76 194.78L252.00 205.52Q252.00 205.74 251.83 206.18Q251.67 206.62 251.67 206.73Q251.67 206.94 251.78 207.16L251.61 208.32Q251.50 208.64 251.45 209.19L254.41 207.82L257.70 206.34L258.63 206.56Q258.79 206.62 258.90 206.73L260.71 206.34L263.18 205.74Q263.40 205.46 263.78 205.46Q264.00 205.52 264.28 205.90L265.54 205.57L266.80 207.44Q266.69 208.04 266.30 208.32Q265.59 208.43 265.26 209.08L264.06 208.75L261.64 209.69Q261.37 209.80 260.71 210.01Q260.38 210.18 260.22 210.18Q259.89 210.12 259.62 210.12Q258.74 210.12 258.03 210.73Q257.37 210.73 256.05 211.39Q254.74 212.04 254.08 212.04Q251.06 213.85 251.23 215.00L251.39 215.00Q251.45 215.50 251.50 216.54L251.56 218.40Q251.56 218.62 251.28 219.72L251.50 220.76L251.23 223.17Q251.17 223.72 251.39 224.49L251.01 225.14Q251.06 225.58 251.28 226.46Q251.34 226.68 251.12 227.34L251.01 228.27Q250.96 228.21 250.79 229.80L250.52 232.33L250.85 233.48L250.68 234.35Q250.52 234.46 250.41 234.63Q250.41 235.18 250.57 236.88Q250.41 237.53 249.80 237.97L249.58 238.14L247.56 240.33L245.97 240.11L244.93 239.56L243.83 238.36L242.90 237.86L241.47 235.50L240.70 235.07Q240.43 234.57 239.61 233.86L239.33 233.37L238.35 232.98L236.59 230.35Q235.00 228.71 233.36 227.06L231.60 225.91L230.07 226.02Q229.91 225.97 229.80 225.86L229.03 227.17L226.78 232.00L225.68 233.81Q225.30 235.01 224.31 236.99L223.98 238.57L224.15 239.45Q224.15 239.51 223.66 240.47Q223.16 241.43 223.16 241.48Q222.78 241.92 222.12 242.74L221.52 244.66L221.19 245.48Q220.53 246.25 219.76 247.07Q219.05 247.24 218.28 247.40L218.78 243.78M247.23 205.63L247.34 205.36L247.83 202.40Q248.05 201.85 247.99 201.08L248.32 199.49Q248.76 198.72 248.65 198.45L248.49 198.06Q248.76 197.74 248.65 197.41L248.49 196.97L248.65 196.31Q248.76 196.09 248.76 195.82Q248.76 195.32 248.43 194.67Q248.16 194.45 248.16 193.84Q248.16 193.35 248.32 192.64L248.16 191.60L247.99 191.43L247.17 192.80L246.24 194.17L246.41 194.50L245.47 196.26L244.49 196.91L243.34 200.37Q243.23 200.48 242.90 200.59L242.29 203.11L241.20 204.75L241.20 205.19L239.44 208.10L232.76 219.94L232.81 219.99L232.97 219.99L235.11 219.22Q235.22 219.06 235.44 218.79Q236.37 218.84 237.42 218.13Q238.84 217.14 239.17 217.03Q240.92 215.99 242.73 214.62Q243.94 213.74 246.08 212.87L246.79 211.99L247.01 211.11L247.01 210.12L247.17 208.64Q247.34 207.16 247.28 207.00Q247.28 205.52 247.23 205.63M236.92 226.30L238.13 227.50Q238.51 227.61 239.00 228.16L239.99 229.48L240.16 229.97L241.25 230.35Q241.64 230.41 243.28 231.94Q243.34 232.27 243.61 232.60Q243.94 232.54 244.65 232.82L245.31 233.42L245.31 234.02Q245.97 232.49 245.97 231.56Q245.97 231.17 245.86 230.90Q245.86 229.64 246.79 227.56Q246.68 227.50 246.62 227.34L246.84 225.75L246.84 222.24Q246.84 219.66 247.01 219.39L247.34 216.70L244.71 218.24L244.43 218.24L241.86 220.54L239.44 221.75L235.77 224.27L235.44 224.65Q235.88 225.09 235.94 225.36Q236.43 225.69 236.92 226.30Z" fill="#fff" style="fill: rgb(31, 138, 112);"></path></g><g id="SvgjsG4345" rel="mainfill" name="slogan_text" xmlns:name="slogan_text" transform="translate(55.255932331085205,-106.52098693847657)" fill="#fff"><path d="M6.16 240.31C9.21 240.31 11.02 238.21 11.02 234.83L11.02 228.69C11.02 225.33 9.21 223.24 6.16 223.24C3.10 223.24 1.27 225.33 1.27 228.69L1.27 234.83C1.27 238.21 3.10 240.31 6.16 240.31ZM6.16 238.43C4.23 238.43 3.24 237.13 3.24 234.83L3.24 228.69C3.24 226.41 4.23 225.12 6.16 225.12C8.06 225.12 9.05 226.41 9.05 228.69L9.05 234.83C9.05 237.13 8.06 238.43 6.16 238.43ZM20.26 227.64L12.55 227.64L12.55 229.35L15.49 229.35L15.49 240L17.32 240L17.32 229.35L20.26 229.35ZM20.52 242.73L22.31 242.73L22.31 240L29.24 240L29.24 242.73L31.03 242.73L31.03 238.28L29.64 238.28L29.64 227.64L22.82 227.64C22.80 229.54 22.73 231.42 22.59 233.35C22.45 235.37 22.12 237.16 21.44 238.28L20.52 238.28ZM23.51 238.28C23.95 237.18 24.23 235.68 24.40 233.70C24.52 232.24 24.56 230.81 24.59 229.35L27.81 229.35L27.81 238.28ZM36.76 232.06L34.65 232.06L34.65 227.71L32.81 227.71L32.81 240L36.76 240C39.04 240 40.83 238.35 40.83 236.00C40.83 233.65 39.04 232.06 36.76 232.06ZM42.52 227.71L42.52 240L44.35 240L44.35 227.71ZM36.64 238.28L34.65 238.28L34.65 233.77L36.64 233.77C37.98 233.77 38.95 234.62 38.95 235.98C38.95 237.39 37.98 238.28 36.64 238.28ZM55.03 240L51.57 233.82L54.81 227.64L52.77 227.64L50.44 232.17L48.14 227.64L46.07 227.64L49.34 233.82L45.86 240L47.97 240L50.44 235.28L52.91 240ZM60.31 227.33C57.92 227.33 56.34 228.76 56.25 231.02L58.10 231.02C58.20 229.78 59.07 229.12 60.27 229.12C61.68 229.12 62.36 230.01 62.36 231.63L62.36 232.71L60.24 232.71C57.54 232.71 55.87 234.03 55.87 236.47C55.87 238.85 57.47 240.31 59.73 240.31C61.11 240.31 62.01 239.67 62.55 238.82L62.69 240L64.22 240L64.22 231.61C64.22 228.93 62.81 227.33 60.31 227.33ZM62.36 236.40C62.36 237.70 61.49 238.59 60.08 238.59C58.67 238.59 57.75 237.86 57.75 236.50C57.75 235.11 58.62 234.36 60.22 234.36L62.36 234.36ZM73.50 236.17C73.29 237.74 72.56 238.45 70.99 238.45C69.55 238.45 68.71 237.60 68.71 235.72L68.71 234.59L75.17 234.59L75.17 231.84C75.17 228.98 73.52 227.33 70.96 227.33C68.45 227.33 66.83 228.98 66.83 231.84L66.83 235.72C66.83 238.61 68.42 240.26 70.94 240.26C73.57 240.26 75.15 238.78 75.33 236.17ZM70.99 229.09C72.47 229.09 73.34 229.96 73.34 231.82L73.34 233.07L68.71 233.07L68.71 231.82C68.71 229.96 69.55 229.09 70.99 229.09ZM85.84 227.64L83.63 232.67C83.33 233.42 83.02 234.15 82.76 234.92L82.69 234.92C82.43 234.15 82.13 233.42 81.82 232.67L79.64 227.64L77.76 227.64L77.76 240L79.49 240L79.49 234.17C79.49 232.92 79.40 231.84 79.38 230.83L79.47 230.79C79.80 231.82 80.15 232.85 80.51 233.77L81.85 236.85L83.61 236.85L84.95 233.77C85.32 232.85 85.65 231.82 86.01 230.79L86.10 230.83C86.05 231.84 85.96 232.92 85.96 234.17L85.96 240L87.70 240L87.70 227.64ZM99.62 240.26C102.15 240.26 103.75 238.64 103.82 235.77L101.97 235.77C101.90 237.60 101.07 238.45 99.62 238.45C98.23 238.45 97.41 237.60 97.41 235.77L97.41 231.80C97.41 229.99 98.23 229.12 99.62 229.12C101.05 229.12 101.87 229.99 101.92 231.80L103.80 231.80C103.71 228.95 102.18 227.33 99.62 227.33C97.12 227.33 95.53 228.95 95.53 231.80L95.53 235.77C95.53 238.64 97.12 240.26 99.62 240.26ZM117.17 227.64L117.17 232.76L113.11 232.76L113.11 227.64L111.27 227.64L111.27 240L113.11 240L113.11 234.50L117.17 234.50L117.17 240L119.03 240L119.03 227.64ZM125.73 227.33C123.33 227.33 121.76 228.76 121.66 231.02L123.52 231.02C123.61 229.78 124.48 229.12 125.68 229.12C127.09 229.12 127.77 230.01 127.77 231.63L127.77 232.71L125.66 232.71C122.96 232.71 121.29 234.03 121.29 236.47C121.29 238.85 122.89 240.31 125.14 240.31C126.53 240.31 127.42 239.67 127.96 238.82L128.10 240L129.63 240L129.63 231.61C129.63 228.93 128.22 227.33 125.73 227.33ZM127.77 236.40C127.77 237.70 126.90 238.59 125.49 238.59C124.08 238.59 123.17 237.86 123.17 236.50C123.17 235.11 124.04 234.36 125.64 234.36L127.77 234.36ZM140.63 227.64L138.42 232.67C138.12 233.42 137.81 234.15 137.55 234.92L137.48 234.92C137.22 234.15 136.92 233.42 136.61 232.67L134.43 227.64L132.55 227.64L132.55 240L134.29 240L134.29 234.17C134.29 232.92 134.19 231.84 134.17 230.83L134.26 230.79C134.59 231.82 134.94 232.85 135.30 233.77L136.64 236.85L138.40 236.85L139.74 233.77C140.11 232.85 140.44 231.82 140.80 230.79L140.89 230.83C140.84 231.84 140.75 232.92 140.75 234.17L140.75 240L142.49 240L142.49 227.64ZM145.40 240L147.28 240L150.39 233.68C150.83 232.74 151.42 231.19 151.59 230.64L151.63 230.67C151.56 231.80 151.54 233.09 151.54 234.31L151.54 240L153.32 240L153.32 227.64L151.44 227.64L148.29 234.22C147.97 234.97 147.42 236.33 147.21 236.90L147.17 236.85C147.21 235.72 147.21 234.69 147.21 233.75L147.21 227.64L145.40 227.64Z" fill="#fff" style="fill: rgb(31, 138, 112);"></path></g><g id="SvgjsG4346" rel="mainfill" name="symbol" xmlns:name="symbol_mainfill" transform="translate(97.55081100463867,0) scale(0.7)" fill="#1F8A70"><path d="M99.925,5.721c-0.716-2.606-7.372-2.83-10.05-1.938c-9.739,3.239-19.479,6.479-29.22,9.719L26.845,0l-3.568,3.803l14.468,17.376c-9.326,3.224-26.407,9.177-29.507,10.207c-2.669,0.889,17.247,3.715,21.813,2.956c0,0,35.082-11.443,50.593-16.604c3.987-1.326,7.976-2.652,11.963-3.979C95.275,12.872,100.702,8.549,99.925,5.721z" fill="#1F8A70" style="fill: rgb(31, 138, 112);"></path><polygon points="2.71,19.027 0,21.531 7.187,29.915 17.602,26.247 "></polygon></g></svg>